<svg width="288" height="496" viewBox="0 0 288 496" fill="none" xmlns="http://www.w3.org/2000/svg">
<path d="M260 0H28C20.5765 0.0082053 13.4593 2.96083 8.21008 8.21007C2.96083 13.4593 0.0082053 20.5765 0 28V468C0.0082053 475.424 2.96083 482.541 8.21008 487.79C13.4593 493.039 20.5765 495.992 28 496H260C267.424 495.992 274.541 493.039 279.79 487.79C285.039 482.541 287.992 475.424 288 468V28C287.992 20.5765 285.039 13.4593 279.79 8.21007C274.541 2.96083 267.424 0.0082053 260 0ZM181.75 16L177.75 32H110.25L106.25 16H181.75ZM272 468C271.997 471.182 270.732 474.232 268.482 476.482C266.232 478.732 263.182 479.997 260 480H28C24.8182 479.997 21.7675 478.732 19.5176 476.482C17.2678 474.232 16.0026 471.182 16 468V28C16.0026 24.8182 17.2678 21.7675 19.5176 19.5176C21.7675 17.2678 24.8182 16.0026 28 16H89.75L96.24 41.94C96.6726 43.6707 97.6713 45.2072 99.0773 46.3052C100.483 47.4032 102.216 47.9997 104 48H184C185.784 47.9997 187.517 47.4032 188.923 46.3052C190.329 45.2072 191.327 43.6707 191.76 41.94L198.25 16H260C263.182 16.0026 266.232 17.2678 268.482 19.5176C270.732 21.7675 271.997 24.8182 272 28V468Z" fill="black"/>
<path d="M176 456H112C109.878 456 107.843 456.843 106.343 458.343C104.843 459.843 104 461.878 104 464C104 466.122 104.843 468.157 106.343 469.657C107.843 471.157 109.878 472 112 472H176C178.122 472 180.157 471.157 181.657 469.657C183.157 468.157 184 466.122 184 464C184 461.878 183.157 459.843 181.657 458.343C180.157 456.843 178.122 456 176 456Z" fill="black"/>
<path d="M232 152H128C125.878 152 123.843 152.843 122.343 154.343C120.843 155.843 120 157.878 120 160C120 162.122 120.843 164.157 122.343 165.657C123.843 167.157 125.878 168 128 168H176V208C176 210.122 176.843 212.157 178.343 213.657C179.843 215.157 181.878 216 184 216H232C234.122 216 236.157 215.157 237.657 213.657C239.157 212.157 240 210.122 240 208V160C240 157.878 239.157 155.843 237.657 154.343C236.157 152.843 234.122 152 232 152ZM224 200H192V168H224V200Z" fill="black"/>
<path d="M112 336V288C112 285.878 111.157 283.843 109.657 282.343C108.157 280.843 106.122 280 104 280H56C53.8783 280 51.8434 280.843 50.3431 282.343C48.8428 283.843 48 285.878 48 288V336C48 338.122 48.8428 340.157 50.3431 341.657C51.8434 343.157 53.8783 344 56 344H104C106.122 344 108.157 343.157 109.657 341.657C111.157 340.157 112 338.122 112 336ZM96 328H64V296H96V328Z" fill="black"/>
<path d="M232 280H184C181.878 280 179.843 280.843 178.343 282.343C176.843 283.843 176 285.878 176 288V328H128C125.878 328 123.843 328.843 122.343 330.343C120.843 331.843 120 333.878 120 336C120 338.122 120.843 340.157 122.343 341.657C123.843 343.157 125.878 344 128 344H232C234.122 344 236.157 343.157 237.657 341.657C239.157 340.157 240 338.122 240 336V288C240 285.878 239.157 283.843 237.657 282.343C236.157 280.843 234.122 280 232 280ZM224 328H192V296H224V328Z" fill="black"/>
<path d="M160 304H128C125.878 304 123.843 304.843 122.343 306.343C120.843 307.843 120 309.878 120 312C120 314.122 120.843 316.157 122.343 317.657C123.843 319.157 125.878 320 128 320H160C162.122 320 164.157 319.157 165.657 317.657C167.157 316.157 168 314.122 168 312C168 309.878 167.157 307.843 165.657 306.343C164.157 304.843 162.122 304 160 304Z" fill="black"/>
<path d="M232 224C229.878 224 227.843 224.843 226.343 226.343C224.843 227.843 224 229.878 224 232V264C224 266.122 224.843 268.157 226.343 269.657C227.843 271.157 229.878 272 232 272C234.122 272 236.157 271.157 237.657 269.657C239.157 268.157 240 266.122 240 264V232C240 229.878 239.157 227.843 237.657 226.343C236.157 224.843 234.122 224 232 224Z" fill="black"/>
<path d="M216 264V232C216 229.878 215.157 227.843 213.657 226.343C212.157 224.843 210.122 224 208 224C205.878 224 203.843 224.843 202.343 226.343C200.843 227.843 200 229.878 200 232V264C200 266.122 200.843 268.157 202.343 269.657C203.843 271.157 205.878 272 208 272C210.122 272 212.157 271.157 213.657 269.657C215.157 268.157 216 266.122 216 264Z" fill="black"/>
<path d="M160 224H64V216H104C106.122 216 108.157 215.157 109.657 213.657C111.157 212.157 112 210.122 112 208V160C112 157.878 111.157 155.843 109.657 154.343C108.157 152.843 106.122 152 104 152H56C53.8783 152 51.8434 152.843 50.3431 154.343C48.8428 155.843 48 157.878 48 160V264C48 266.122 48.8428 268.157 50.3431 269.657C51.8434 271.157 53.8783 272 56 272C58.1217 272 60.1566 271.157 61.6569 269.657C63.1572 268.157 64 266.122 64 264V240H120V256H96C93.8783 256 91.8434 256.843 90.3431 258.343C88.8428 259.843 88 261.878 88 264C88 266.122 88.8428 268.157 90.3431 269.657C91.8434 271.157 93.8783 272 96 272H160C162.122 272 164.157 271.157 165.657 269.657C167.157 268.157 168 266.122 168 264V232C168 229.878 167.157 227.843 165.657 226.343C164.157 224.843 162.122 224 160 224ZM64 168H96V200H64V168ZM152 256H136V240H152V256Z" fill="black"/>
<path d="M200 176H216V192H200V176Z" fill="black"/>
<path d="M72 304H88V320H72V304Z" fill="black"/>
<path d="M152 208V184C152 181.878 151.157 179.843 149.657 178.343C148.157 176.843 146.122 176 144 176C141.878 176 139.843 176.843 138.343 178.343C136.843 179.843 136 181.878 136 184V208C136 210.122 136.843 212.157 138.343 213.657C139.843 215.157 141.878 216 144 216C146.122 216 148.157 215.157 149.657 213.657C151.157 212.157 152 210.122 152 208Z" fill="black"/>
<path d="M184 256C186.122 256 188.157 255.157 189.657 253.657C191.157 252.157 192 250.122 192 248V232C192 229.878 191.157 227.843 189.657 226.343C188.157 224.843 186.122 224 184 224C181.878 224 179.843 224.843 178.343 226.343C176.843 227.843 176 229.878 176 232V248C176 250.122 176.843 252.157 178.343 253.657C179.843 255.157 181.878 256 184 256Z" fill="black"/>
<path d="M192.047 387.771H179.547C178.468 387.771 177.594 388.646 177.594 389.724V399.588C177.594 400.666 178.468 401.541 179.547 401.541C180.626 401.541 181.5 400.666 181.5 399.588V391.678H190.094V443.094H185.797H181.5V414.236C181.5 413.158 180.626 412.283 179.547 412.283C178.468 412.283 177.594 413.158 177.594 414.236V443.094H173.688V402.664C173.688 401.586 172.813 400.711 171.734 400.711H159.234C158.156 400.711 157.281 401.586 157.281 402.664V443.094H153.375V416.336C153.375 415.257 152.501 414.383 151.422 414.383H138.922C137.843 414.383 136.969 415.257 136.969 416.336V443.094H133.062V427.542C133.062 426.463 132.188 425.589 131.109 425.589H118.609C117.531 425.589 116.656 426.463 116.656 427.542V443.094H99.8594C98.7824 443.094 97.9062 442.218 97.9062 441.141V352.859C97.9062 351.782 98.7824 350.906 99.8594 350.906H150.245V363.797C150.245 367.028 152.874 369.657 156.104 369.657H168.995V393.68C168.995 394.758 169.87 395.633 170.948 395.633C172.027 395.633 172.901 394.758 172.901 393.68V367.704C172.901 367.186 172.696 366.689 172.329 366.323L153.579 347.572C153.213 347.206 152.716 347 152.198 347H99.8594C96.6285 347 94 349.629 94 352.859V441.141C94 444.371 96.6285 447 99.8594 447H192.047C193.126 447 194 446.125 194 445.047V389.724C194 388.646 193.126 387.771 192.047 387.771ZM154.151 353.669L166.233 365.751H156.104C155.027 365.751 154.151 364.874 154.151 363.797V353.669ZM129.156 443.094H120.562V429.495H129.156V443.094ZM149.469 443.094H140.875V418.289H149.469V443.094ZM169.781 443.094H161.188V404.617H169.781V443.094Z" fill="black"/>
<path d="M180.928 405.168C180.564 404.803 180.061 404.596 179.547 404.596C179.033 404.596 178.529 404.803 178.166 405.168C177.803 405.531 177.594 406.035 177.594 406.549C177.594 407.062 177.803 407.566 178.166 407.93C178.529 408.293 179.033 408.502 179.547 408.502C180.061 408.502 180.564 408.293 180.928 407.93C181.291 407.566 181.5 407.062 181.5 406.549C181.5 406.035 181.291 405.531 180.928 405.168Z" fill="black"/>
<path d="M122.433 357.689C121.354 357.689 120.48 358.564 120.48 359.642V363.156C111.49 364.132 104.469 371.769 104.469 381.014C104.469 390.919 112.528 398.978 122.433 398.978C131.679 398.978 139.316 391.958 140.291 382.967H143.805C144.883 382.967 145.758 382.093 145.758 381.014C145.758 368.153 135.294 357.689 122.433 357.689ZM122.433 395.072C114.682 395.072 108.375 388.765 108.375 381.014C108.375 373.926 113.65 368.045 120.48 367.092V381.014C120.48 382.093 121.354 382.967 122.433 382.967H136.355C135.402 389.797 129.522 395.072 122.433 395.072ZM124.386 379.061V379.061V361.693C133.537 362.611 140.836 369.91 141.754 379.061H124.386Z" fill="black"/>
<path d="M143.805 404.471H106.5C105.421 404.471 104.547 405.345 104.547 406.424C104.547 407.502 105.421 408.377 106.5 408.377H143.805C144.883 408.377 145.758 407.502 145.758 406.424C145.758 405.345 144.883 404.471 143.805 404.471Z" fill="black"/>
<path d="M119 413.895H106.5C105.421 413.895 104.547 414.769 104.547 415.848C104.547 416.926 105.421 417.801 106.5 417.801H119C120.079 417.801 120.953 416.926 120.953 415.848C120.953 414.769 120.079 413.895 119 413.895Z" fill="black"/>
<path d="M130.162 414.467C129.799 414.104 129.295 413.895 128.781 413.895C128.266 413.895 127.764 414.103 127.4 414.467C127.035 414.83 126.828 415.334 126.828 415.848C126.828 416.361 127.035 416.865 127.4 417.228C127.764 417.592 128.266 417.801 128.781 417.801C129.295 417.801 129.799 417.592 130.162 417.228C130.525 416.865 130.734 416.361 130.734 415.848C130.734 415.334 130.525 414.83 130.162 414.467Z" fill="black"/>
</svg>
