<svg width="288" height="496" viewBox="0 0 288 496" fill="none" xmlns="http://www.w3.org/2000/svg">
<path d="M260 0H28C20.5765 0.0082053 13.4593 2.96083 8.21008 8.21007C2.96083 13.4593 0.0082053 20.5765 0 28V468C0.0082053 475.424 2.96083 482.541 8.21008 487.79C13.4593 493.039 20.5765 495.992 28 496H260C267.424 495.992 274.541 493.039 279.79 487.79C285.039 482.541 287.992 475.424 288 468V28C287.992 20.5765 285.039 13.4593 279.79 8.21007C274.541 2.96083 267.424 0.0082053 260 0ZM181.75 16L177.75 32H110.25L106.25 16H181.75ZM272 468C271.997 471.182 270.732 474.232 268.482 476.482C266.232 478.732 263.182 479.997 260 480H28C24.8182 479.997 21.7675 478.732 19.5176 476.482C17.2678 474.232 16.0026 471.182 16 468V28C16.0026 24.8182 17.2678 21.7675 19.5176 19.5176C21.7675 17.2678 24.8182 16.0026 28 16H89.75L96.24 41.94C96.6726 43.6707 97.6713 45.2072 99.0773 46.3052C100.483 47.4032 102.216 47.9997 104 48H184C185.784 47.9997 187.517 47.4032 188.923 46.3052C190.329 45.2072 191.327 43.6707 191.76 41.94L198.25 16H260C263.182 16.0026 266.232 17.2678 268.482 19.5176C270.732 21.7675 271.997 24.8182 272 28V468Z" fill="black"/>
<path d="M176 456H112C109.878 456 107.843 456.843 106.343 458.343C104.843 459.843 104 461.878 104 464C104 466.122 104.843 468.157 106.343 469.657C107.843 471.157 109.878 472 112 472H176C178.122 472 180.157 471.157 181.657 469.657C183.157 468.157 184 466.122 184 464C184 461.878 183.157 459.843 181.657 458.343C180.157 456.843 178.122 456 176 456Z" fill="black"/>
<path d="M232 152H128C125.878 152 123.843 152.843 122.343 154.343C120.843 155.843 120 157.878 120 160C120 162.122 120.843 164.157 122.343 165.657C123.843 167.157 125.878 168 128 168H176V208C176 210.122 176.843 212.157 178.343 213.657C179.843 215.157 181.878 216 184 216H232C234.122 216 236.157 215.157 237.657 213.657C239.157 212.157 240 210.122 240 208V160C240 157.878 239.157 155.843 237.657 154.343C236.157 152.843 234.122 152 232 152ZM224 200H192V168H224V200Z" fill="black"/>
<path d="M112 336V288C112 285.878 111.157 283.843 109.657 282.343C108.157 280.843 106.122 280 104 280H56C53.8783 280 51.8434 280.843 50.3431 282.343C48.8428 283.843 48 285.878 48 288V336C48 338.122 48.8428 340.157 50.3431 341.657C51.8434 343.157 53.8783 344 56 344H104C106.122 344 108.157 343.157 109.657 341.657C111.157 340.157 112 338.122 112 336ZM96 328H64V296H96V328Z" fill="black"/>
<path d="M232 280H184C181.878 280 179.843 280.843 178.343 282.343C176.843 283.843 176 285.878 176 288V328H128C125.878 328 123.843 328.843 122.343 330.343C120.843 331.843 120 333.878 120 336C120 338.122 120.843 340.157 122.343 341.657C123.843 343.157 125.878 344 128 344H232C234.122 344 236.157 343.157 237.657 341.657C239.157 340.157 240 338.122 240 336V288C240 285.878 239.157 283.843 237.657 282.343C236.157 280.843 234.122 280 232 280ZM224 328H192V296H224V328Z" fill="black"/>
<path d="M160 304H128C125.878 304 123.843 304.843 122.343 306.343C120.843 307.843 120 309.878 120 312C120 314.122 120.843 316.157 122.343 317.657C123.843 319.157 125.878 320 128 320H160C162.122 320 164.157 319.157 165.657 317.657C167.157 316.157 168 314.122 168 312C168 309.878 167.157 307.843 165.657 306.343C164.157 304.843 162.122 304 160 304Z" fill="black"/>
<path d="M232 224C229.878 224 227.843 224.843 226.343 226.343C224.843 227.843 224 229.878 224 232V264C224 266.122 224.843 268.157 226.343 269.657C227.843 271.157 229.878 272 232 272C234.122 272 236.157 271.157 237.657 269.657C239.157 268.157 240 266.122 240 264V232C240 229.878 239.157 227.843 237.657 226.343C236.157 224.843 234.122 224 232 224Z" fill="black"/>
<path d="M216 264V232C216 229.878 215.157 227.843 213.657 226.343C212.157 224.843 210.122 224 208 224C205.878 224 203.843 224.843 202.343 226.343C200.843 227.843 200 229.878 200 232V264C200 266.122 200.843 268.157 202.343 269.657C203.843 271.157 205.878 272 208 272C210.122 272 212.157 271.157 213.657 269.657C215.157 268.157 216 266.122 216 264Z" fill="black"/>
<path d="M160 224H64V216H104C106.122 216 108.157 215.157 109.657 213.657C111.157 212.157 112 210.122 112 208V160C112 157.878 111.157 155.843 109.657 154.343C108.157 152.843 106.122 152 104 152H56C53.8783 152 51.8434 152.843 50.3431 154.343C48.8428 155.843 48 157.878 48 160V264C48 266.122 48.8428 268.157 50.3431 269.657C51.8434 271.157 53.8783 272 56 272C58.1217 272 60.1566 271.157 61.6569 269.657C63.1572 268.157 64 266.122 64 264V240H120V256H96C93.8783 256 91.8434 256.843 90.3431 258.343C88.8428 259.843 88 261.878 88 264C88 266.122 88.8428 268.157 90.3431 269.657C91.8434 271.157 93.8783 272 96 272H160C162.122 272 164.157 271.157 165.657 269.657C167.157 268.157 168 266.122 168 264V232C168 229.878 167.157 227.843 165.657 226.343C164.157 224.843 162.122 224 160 224ZM64 168H96V200H64V168ZM152 256H136V240H152V256Z" fill="black"/>
<path d="M200 176H216V192H200V176Z" fill="black"/>
<path d="M72 304H88V320H72V304Z" fill="black"/>
<path d="M152 208V184C152 181.878 151.157 179.843 149.657 178.343C148.157 176.843 146.122 176 144 176C141.878 176 139.843 176.843 138.343 178.343C136.843 179.843 136 181.878 136 184V208C136 210.122 136.843 212.157 138.343 213.657C139.843 215.157 141.878 216 144 216C146.122 216 148.157 215.157 149.657 213.657C151.157 212.157 152 210.122 152 208Z" fill="black"/>
<path d="M184 256C186.122 256 188.157 255.157 189.657 253.657C191.157 252.157 192 250.122 192 248V232C192 229.878 191.157 227.843 189.657 226.343C188.157 224.843 186.122 224 184 224C181.878 224 179.843 224.843 178.343 226.343C176.843 227.843 176 229.878 176 232V248C176 250.122 176.843 252.157 178.343 253.657C179.843 255.157 181.878 256 184 256Z" fill="black"/>
<g clip-path="url(#clip0)">
<path d="M137.077 359H102.462C100.55 359 99 360.55 99 362.462V397.077C99 398.989 100.55 400.539 102.462 400.539H137.077C138.989 400.539 140.539 398.989 140.539 397.077V362.462C140.538 360.55 138.989 359 137.077 359ZM133.615 393.615H105.923V365.923H133.615V393.615H133.615Z" fill="black"/>
<path d="M185.539 359H150.923C149.011 359 147.462 360.55 147.462 362.462V397.077C147.462 398.989 149.011 400.539 150.923 400.539H185.539C187.45 400.539 189 398.989 189 397.077V362.462C189 360.55 187.45 359 185.539 359ZM182.077 393.615H154.385V365.923H182.077V393.615Z" fill="black"/>
<path d="M137.077 407.462H102.462C100.55 407.462 99 409.011 99 410.923V445.539C99 447.45 100.55 449 102.462 449H137.077C138.989 449 140.539 447.45 140.539 445.539V410.923C140.538 409.011 138.989 407.462 137.077 407.462ZM133.615 442.077H105.923V414.385H133.615V442.077H133.615Z" fill="black"/>
<path d="M185.539 424.769H171.692V410.923C171.692 409.011 170.143 407.462 168.231 407.462C166.319 407.462 164.769 409.011 164.769 410.923V424.769H150.923C149.011 424.769 147.462 426.319 147.462 428.231C147.462 430.143 149.011 431.692 150.923 431.692H164.769V445.539C164.769 447.45 166.319 449 168.231 449C170.143 449 171.693 447.45 171.693 445.539V431.692H185.539C187.451 431.692 189 430.143 189 428.231C189 426.319 187.45 424.769 185.539 424.769Z" fill="black"/>
</g>
<defs>
<clipPath id="clip0">
<rect width="90" height="90" fill="white" transform="translate(99 359)"/>
</clipPath>
</defs>
</svg>
