<svg width="288" height="496" viewBox="0 0 288 496" fill="none" xmlns="http://www.w3.org/2000/svg">
<path d="M260 0H28C20.5765 0.0082053 13.4593 2.96083 8.21008 8.21007C2.96083 13.4593 0.0082053 20.5765 0 28V468C0.0082053 475.424 2.96083 482.541 8.21008 487.79C13.4593 493.039 20.5765 495.992 28 496H260C267.424 495.992 274.541 493.039 279.79 487.79C285.039 482.541 287.992 475.424 288 468V28C287.992 20.5765 285.039 13.4593 279.79 8.21007C274.541 2.96083 267.424 0.0082053 260 0ZM181.75 16L177.75 32H110.25L106.25 16H181.75ZM272 468C271.997 471.182 270.732 474.232 268.482 476.482C266.232 478.732 263.182 479.997 260 480H28C24.8182 479.997 21.7675 478.732 19.5176 476.482C17.2678 474.232 16.0026 471.182 16 468V28C16.0026 24.8182 17.2678 21.7675 19.5176 19.5176C21.7675 17.2678 24.8182 16.0026 28 16H89.75L96.24 41.94C96.6726 43.6707 97.6713 45.2072 99.0773 46.3052C100.483 47.4032 102.216 47.9997 104 48H184C185.784 47.9997 187.517 47.4032 188.923 46.3052C190.329 45.2072 191.327 43.6707 191.76 41.94L198.25 16H260C263.182 16.0026 266.232 17.2678 268.482 19.5176C270.732 21.7675 271.997 24.8182 272 28V468Z" fill="black"/>
<path d="M176 456H112C109.878 456 107.843 456.843 106.343 458.343C104.843 459.843 104 461.878 104 464C104 466.122 104.843 468.157 106.343 469.657C107.843 471.157 109.878 472 112 472H176C178.122 472 180.157 471.157 181.657 469.657C183.157 468.157 184 466.122 184 464C184 461.878 183.157 459.843 181.657 458.343C180.157 456.843 178.122 456 176 456Z" fill="black"/>
<path d="M232 152H128C125.878 152 123.843 152.843 122.343 154.343C120.843 155.843 120 157.878 120 160C120 162.122 120.843 164.157 122.343 165.657C123.843 167.157 125.878 168 128 168H176V208C176 210.122 176.843 212.157 178.343 213.657C179.843 215.157 181.878 216 184 216H232C234.122 216 236.157 215.157 237.657 213.657C239.157 212.157 240 210.122 240 208V160C240 157.878 239.157 155.843 237.657 154.343C236.157 152.843 234.122 152 232 152ZM224 200H192V168H224V200Z" fill="black"/>
<path d="M112 336V288C112 285.878 111.157 283.843 109.657 282.343C108.157 280.843 106.122 280 104 280H56C53.8783 280 51.8434 280.843 50.3431 282.343C48.8428 283.843 48 285.878 48 288V336C48 338.122 48.8428 340.157 50.3431 341.657C51.8434 343.157 53.8783 344 56 344H104C106.122 344 108.157 343.157 109.657 341.657C111.157 340.157 112 338.122 112 336ZM96 328H64V296H96V328Z" fill="black"/>
<path d="M232 280H184C181.878 280 179.843 280.843 178.343 282.343C176.843 283.843 176 285.878 176 288V328H128C125.878 328 123.843 328.843 122.343 330.343C120.843 331.843 120 333.878 120 336C120 338.122 120.843 340.157 122.343 341.657C123.843 343.157 125.878 344 128 344H232C234.122 344 236.157 343.157 237.657 341.657C239.157 340.157 240 338.122 240 336V288C240 285.878 239.157 283.843 237.657 282.343C236.157 280.843 234.122 280 232 280ZM224 328H192V296H224V328Z" fill="black"/>
<path d="M160 304H128C125.878 304 123.843 304.843 122.343 306.343C120.843 307.843 120 309.878 120 312C120 314.122 120.843 316.157 122.343 317.657C123.843 319.157 125.878 320 128 320H160C162.122 320 164.157 319.157 165.657 317.657C167.157 316.157 168 314.122 168 312C168 309.878 167.157 307.843 165.657 306.343C164.157 304.843 162.122 304 160 304Z" fill="black"/>
<path d="M232 224C229.878 224 227.843 224.843 226.343 226.343C224.843 227.843 224 229.878 224 232V264C224 266.122 224.843 268.157 226.343 269.657C227.843 271.157 229.878 272 232 272C234.122 272 236.157 271.157 237.657 269.657C239.157 268.157 240 266.122 240 264V232C240 229.878 239.157 227.843 237.657 226.343C236.157 224.843 234.122 224 232 224Z" fill="black"/>
<path d="M216 264V232C216 229.878 215.157 227.843 213.657 226.343C212.157 224.843 210.122 224 208 224C205.878 224 203.843 224.843 202.343 226.343C200.843 227.843 200 229.878 200 232V264C200 266.122 200.843 268.157 202.343 269.657C203.843 271.157 205.878 272 208 272C210.122 272 212.157 271.157 213.657 269.657C215.157 268.157 216 266.122 216 264Z" fill="black"/>
<path d="M160 224H64V216H104C106.122 216 108.157 215.157 109.657 213.657C111.157 212.157 112 210.122 112 208V160C112 157.878 111.157 155.843 109.657 154.343C108.157 152.843 106.122 152 104 152H56C53.8783 152 51.8434 152.843 50.3431 154.343C48.8428 155.843 48 157.878 48 160V264C48 266.122 48.8428 268.157 50.3431 269.657C51.8434 271.157 53.8783 272 56 272C58.1217 272 60.1566 271.157 61.6569 269.657C63.1572 268.157 64 266.122 64 264V240H120V256H96C93.8783 256 91.8434 256.843 90.3431 258.343C88.8428 259.843 88 261.878 88 264C88 266.122 88.8428 268.157 90.3431 269.657C91.8434 271.157 93.8783 272 96 272H160C162.122 272 164.157 271.157 165.657 269.657C167.157 268.157 168 266.122 168 264V232C168 229.878 167.157 227.843 165.657 226.343C164.157 224.843 162.122 224 160 224ZM64 168H96V200H64V168ZM152 256H136V240H152V256Z" fill="black"/>
<path d="M200 176H216V192H200V176Z" fill="black"/>
<path d="M72 304H88V320H72V304Z" fill="black"/>
<path d="M152 208V184C152 181.878 151.157 179.843 149.657 178.343C148.157 176.843 146.122 176 144 176C141.878 176 139.843 176.843 138.343 178.343C136.843 179.843 136 181.878 136 184V208C136 210.122 136.843 212.157 138.343 213.657C139.843 215.157 141.878 216 144 216C146.122 216 148.157 215.157 149.657 213.657C151.157 212.157 152 210.122 152 208Z" fill="black"/>
<path d="M184 256C186.122 256 188.157 255.157 189.657 253.657C191.157 252.157 192 250.122 192 248V232C192 229.878 191.157 227.843 189.657 226.343C188.157 224.843 186.122 224 184 224C181.878 224 179.843 224.843 178.343 226.343C176.843 227.843 176 229.878 176 232V248C176 250.122 176.843 252.157 178.343 253.657C179.843 255.157 181.878 256 184 256Z" fill="black"/>
<path d="M188.031 380.719C186.392 380.719 185.062 379.389 185.062 377.75V362.535C185.062 361.103 183.897 359.938 182.465 359.938H167.25C165.61 359.938 164.281 358.608 164.281 356.969C164.281 355.329 165.61 354 167.25 354H182.465C187.171 354 191 357.829 191 362.535V377.75C191 379.389 189.671 380.719 188.031 380.719Z" fill="black"/>
<path d="M98.9688 380.719C97.3291 380.719 96 379.389 96 377.75V362.535C96 357.829 99.8289 354 104.535 354H119.75C121.39 354 122.719 355.329 122.719 356.969C122.719 358.608 121.39 359.938 119.75 359.938H104.535C103.103 359.938 101.938 361.103 101.938 362.535V377.75C101.938 379.389 100.608 380.719 98.9688 380.719Z" fill="black"/>
<path d="M119.75 449H104.535C99.8289 449 96 445.171 96 440.465V425.25C96 423.611 97.3291 422.281 98.9688 422.281C100.608 422.281 101.938 423.611 101.938 425.25V440.465C101.938 441.897 103.103 443.062 104.535 443.062H119.75C121.39 443.062 122.719 444.392 122.719 446.031C122.719 447.671 121.39 449 119.75 449Z" fill="black"/>
<path d="M182.465 449H167.25C165.61 449 164.281 447.671 164.281 446.031C164.281 444.392 165.61 443.062 167.25 443.062H182.465C183.897 443.062 185.062 441.897 185.062 440.465V425.25C185.062 423.611 186.392 422.281 188.031 422.281C189.671 422.281 191 423.611 191 425.25V440.465C191 445.171 187.171 449 182.465 449Z" fill="black"/>
<path d="M131.996 398.531H116.41C111.704 398.531 107.875 394.702 107.875 389.996V374.41C107.875 369.704 111.704 365.875 116.41 365.875H131.996C136.702 365.875 140.531 369.704 140.531 374.41V389.996C140.531 394.702 136.702 398.531 131.996 398.531ZM116.41 371.812C114.978 371.812 113.812 372.978 113.812 374.41V389.996C113.812 391.429 114.978 392.594 116.41 392.594H131.996C133.429 392.594 134.594 391.429 134.594 389.996V374.41C134.594 372.978 133.429 371.812 131.996 371.812H116.41Z" fill="black"/>
<path d="M131.996 437.125H116.41C111.704 437.125 107.875 433.296 107.875 428.59V413.004C107.875 408.298 111.704 404.469 116.41 404.469H131.996C136.702 404.469 140.531 408.298 140.531 413.004V428.59C140.531 433.296 136.702 437.125 131.996 437.125ZM116.41 410.406C114.978 410.406 113.812 411.571 113.812 413.004V428.59C113.812 430.022 114.978 431.188 116.41 431.188H131.996C133.429 431.188 134.594 430.022 134.594 428.59V413.004C134.594 411.571 133.429 410.406 131.996 410.406H116.41Z" fill="black"/>
<path d="M170.59 398.531H155.004C150.298 398.531 146.469 394.702 146.469 389.996V374.41C146.469 369.704 150.298 365.875 155.004 365.875H170.59C175.296 365.875 179.125 369.704 179.125 374.41V389.996C179.125 394.702 175.296 398.531 170.59 398.531ZM155.004 371.812C153.571 371.812 152.406 372.978 152.406 374.41V389.996C152.406 391.429 153.571 392.594 155.004 392.594H170.59C172.022 392.594 173.188 391.429 173.188 389.996V374.41C173.188 372.978 172.022 371.812 170.59 371.812H155.004Z" fill="black"/>
<path d="M174.301 419.312H167.25V409.293C167.25 406.633 165.086 404.469 162.426 404.469H151.293C148.633 404.469 146.469 406.633 146.469 409.293V420.426C146.469 423.086 148.633 425.25 151.293 425.25H161.312V432.301C161.312 434.961 163.477 437.125 166.137 437.125H174.301C176.961 437.125 179.125 434.961 179.125 432.301V424.137C179.125 421.477 176.961 419.312 174.301 419.312ZM152.406 410.406H161.312V419.312H152.406V410.406ZM173.188 431.188H167.25V425.25H173.188V431.188Z" fill="black"/>
<path d="M125.688 386.656H122.719C121.079 386.656 119.75 385.327 119.75 383.688V380.719C119.75 379.079 121.079 377.75 122.719 377.75H125.688C127.327 377.75 128.656 379.079 128.656 380.719V383.688C128.656 385.327 127.327 386.656 125.688 386.656Z" fill="black"/>
<path d="M164.281 386.656H161.312C159.673 386.656 158.344 385.327 158.344 383.688V380.719C158.344 379.079 159.673 377.75 161.312 377.75H164.281C165.921 377.75 167.25 379.079 167.25 380.719V383.688C167.25 385.327 165.921 386.656 164.281 386.656Z" fill="black"/>
<path d="M125.688 425.25H122.719C121.079 425.25 119.75 423.921 119.75 422.281V419.312C119.75 417.673 121.079 416.344 122.719 416.344H125.688C127.327 416.344 128.656 417.673 128.656 419.312V422.281C128.656 423.921 127.327 425.25 125.688 425.25Z" fill="black"/>
</svg>
