<svg width="100" height="100" viewBox="0 0 100 100" fill="none" xmlns="http://www.w3.org/2000/svg">
<circle cx="50" cy="50" r="48" stroke="white" stroke-width="4"/>
<path d="M69.3194 76.4686H16.1973C15.0237 76.467 13.8985 75.9445 13.0687 75.0156C12.2388 74.0867 11.7719 72.8273 11.7705 71.5136V35.838H13.5412V71.5136C13.5412 72.3021 13.8211 73.0583 14.3192 73.6159C14.8173 74.1734 15.4929 74.4866 16.1973 74.4866H69.3194C70.0239 74.4866 70.6995 74.1734 71.1976 73.6159C71.6957 73.0583 71.9755 72.3021 71.9755 71.5136V27.91C71.9755 27.1216 71.6957 26.3654 71.1976 25.8078C70.6995 25.2503 70.0239 24.9371 69.3194 24.9371H16.1973C15.4929 24.9371 14.8173 25.2503 14.3192 25.8078C13.8211 26.3654 13.5412 27.1216 13.5412 27.91V31.874H11.7705V27.91C11.7719 26.5964 12.2388 25.337 13.0687 24.4081C13.8985 23.4792 15.0237 22.9567 16.1973 22.9551H69.3194C70.4931 22.9567 71.6182 23.4792 72.4481 24.4081C73.278 25.337 73.7449 26.5964 73.7463 27.91V71.5136C73.7449 72.8273 73.278 74.0867 72.4481 75.0156C71.6182 75.9445 70.4931 76.467 69.3194 76.4686Z" fill="white"/>
<path d="M56.0392 86.3783H29.4781C29.2433 86.3783 29.0181 86.2739 28.8521 86.0881C28.6861 85.9022 28.5928 85.6502 28.5928 85.3873C28.5928 80.4324 33.2578 80.4324 34.7903 80.4324H50.727C52.2595 80.4324 56.9245 80.4324 56.9245 85.3873C56.9245 85.6502 56.8313 85.9022 56.6652 86.0881C56.4992 86.2739 56.274 86.3783 56.0392 86.3783ZM30.4706 84.3963H55.0467C54.7377 83.1764 53.6691 82.4144 50.727 82.4144H34.7903C31.8483 82.4144 30.7796 83.1764 30.4706 84.3963V84.3963Z" fill="white"/>
<path d="M49.8418 82.4145H35.6759C35.4411 82.4145 35.2159 82.3101 35.0498 82.1242C34.8838 81.9384 34.7905 81.6863 34.7905 81.4235V75.4776C34.7905 75.2147 34.8838 74.9627 35.0498 74.7768C35.2159 74.591 35.4411 74.4866 35.6759 74.4866H49.8418C50.0766 74.4866 50.3018 74.591 50.4678 74.7768C50.6339 74.9627 50.7272 75.2147 50.7272 75.4776V81.4235C50.7272 81.6863 50.6339 81.9384 50.4678 82.1242C50.3018 82.3101 50.0766 82.4145 49.8418 82.4145ZM36.5613 80.4325H48.9564V76.4686H36.5613V80.4325Z" fill="white"/>
<path d="M12.6562 66.5586H72.8613V68.5406H12.6562V66.5586Z" fill="white"/>
<path d="M39.2173 70.5225H46.3002V72.5044H39.2173V70.5225Z" fill="white"/>
<rect x="57.3335" y="28" width="34.3965" height="36.6667" rx="4" fill="#54CC0B"/>
<g clip-path="url(#clip0)">
<path d="M69.5007 29.6667H60.1412C59.495 29.6667 58.9712 30.1997 58.9712 30.8572V40.381C58.9712 41.0385 59.495 41.5715 60.1412 41.5715H69.5007C70.1469 41.5715 70.6707 41.0385 70.6707 40.381V30.8572C70.6707 30.1997 70.1469 29.6667 69.5007 29.6667ZM68.3308 39.1905H61.3111V32.0477H68.3308V39.1905Z" fill="white"/>
<path d="M64.8209 33.2383C64.1747 33.2383 63.6509 33.7713 63.6509 34.4288V36.8097C63.6509 37.4672 64.1747 38.0002 64.8209 38.0002C65.467 38.0002 65.9908 37.4672 65.9908 36.8097V34.4288C65.9908 33.7713 65.467 33.2383 64.8209 33.2383Z" fill="white"/>
<path d="M69.5007 51.0952H60.1412C59.495 51.0952 58.9712 51.6282 58.9712 52.2857V61.8095C58.9712 62.467 59.495 63 60.1412 63H69.5007C70.1469 63 70.6707 62.467 70.6707 61.8095V52.2857C70.6707 51.6282 70.1469 51.0952 69.5007 51.0952ZM68.3308 60.619H61.3111V53.4761H68.3308V60.619Z" fill="white"/>
<path d="M64.8209 54.6667C64.1747 54.6667 63.6509 55.1997 63.6509 55.8572V58.2382C63.6509 58.8957 64.1747 59.4287 64.8209 59.4287C65.467 59.4287 65.9908 58.8957 65.9908 58.2382V55.8572C65.9908 55.1997 65.467 54.6667 64.8209 54.6667Z" fill="white"/>
<path d="M90.5598 51.0952H81.2002C80.5541 51.0952 80.0303 51.6282 80.0303 52.2857V61.8095C80.0303 62.467 80.5541 63 81.2002 63H90.5598C91.206 63 91.7298 62.467 91.7298 61.8095V52.2857C91.7298 51.6282 91.206 51.0952 90.5598 51.0952ZM89.3899 60.619H82.3702V53.4761H89.3899V60.619V60.619Z" fill="white"/>
<path d="M85.8799 54.6667C85.2338 54.6667 84.71 55.1997 84.71 55.8572V58.2382C84.71 58.8957 85.2338 59.4287 85.8799 59.4287C86.5261 59.4287 87.0499 58.8957 87.0499 58.2382V55.8572C87.0499 55.1997 86.5261 54.6667 85.8799 54.6667Z" fill="white"/>
<path d="M90.5597 29.6667H84.71C84.0638 29.6667 83.54 30.1997 83.54 30.8572C83.54 31.5148 84.0638 32.0477 84.71 32.0477H89.3898V36.8096C89.3898 37.4671 89.9136 38.0001 90.5598 38.0001C91.206 38.0001 91.7298 37.4671 91.7298 36.8096V30.8572C91.7297 30.1997 91.2059 29.6667 90.5597 29.6667Z" fill="white"/>
<path d="M73.0103 55.8572C72.3641 55.8572 71.8403 56.3902 71.8403 57.0477V61.8095C71.8403 62.467 72.3641 63 73.0103 63C73.6565 63 74.1803 62.467 74.1803 61.8095V57.0476C74.1803 56.3902 73.6565 55.8572 73.0103 55.8572Z" fill="white"/>
<path d="M78.8602 41.5715H73.0104C72.3643 41.5715 71.8405 42.1045 71.8405 42.762V47.5239H68.3306C67.6844 47.5239 67.1606 48.0569 67.1606 48.7144C67.1606 49.3719 67.6844 49.9049 68.3306 49.9049H73.0104C73.6566 49.9049 74.1804 49.3719 74.1804 48.7144V43.9525H78.8602C79.5064 43.9525 80.0302 43.4195 80.0302 42.762C80.0301 42.1045 79.5063 41.5715 78.8602 41.5715Z" fill="white"/>
<path d="M69.5007 43.9524H64.8209C64.1747 43.9524 63.6509 44.4854 63.6509 45.1429C63.6509 45.8004 64.1747 46.3334 64.8209 46.3334H69.5007C70.1468 46.3334 70.6706 45.8004 70.6706 45.1429C70.6706 44.4854 70.1468 43.9524 69.5007 43.9524Z" fill="white"/>
<path d="M78.8601 38.0002H74.1803V34.4288C74.1803 33.7713 73.6565 33.2383 73.0103 33.2383C72.3641 33.2383 71.8403 33.7713 71.8403 34.4288V39.1907C71.8403 39.8482 72.3641 40.3812 73.0103 40.3812H78.86C79.5062 40.3812 80.03 39.8482 80.03 39.1907C80.0301 38.5332 79.5063 38.0002 78.8601 38.0002Z" fill="white"/>
<path d="M87.0497 34.4287H82.3699V30.8572C82.3699 30.1997 81.8461 29.6667 81.2 29.6667H73.0103C72.3641 29.6667 71.8403 30.1997 71.8403 30.8572C71.8403 31.5148 72.3641 32.0477 73.0103 32.0477H80.03V35.6192C80.03 36.2767 80.5538 36.8097 81.2 36.8097H87.0497C87.6959 36.8097 88.2197 36.2767 88.2197 35.6192C88.2197 34.9617 87.6959 34.4287 87.0497 34.4287Z" fill="white"/>
<path d="M82.3702 38C81.724 38 81.2002 38.533 81.2002 39.1905V43.9524C81.2002 44.6099 81.724 45.1429 82.3702 45.1429C83.0163 45.1429 83.5401 44.6099 83.5401 43.9524V39.1904C83.5401 38.533 83.0163 38 82.3702 38Z" fill="white"/>
<path d="M90.5598 39.1907H85.8799C85.2338 39.1907 84.71 39.7237 84.71 40.3812C84.71 41.0387 85.2338 41.5717 85.8799 41.5717H90.5598C91.2059 41.5717 91.7297 41.0387 91.7297 40.3812C91.7297 39.7237 91.2059 39.1907 90.5598 39.1907Z" fill="white"/>
<path d="M90.5598 42.762H85.8799C85.2338 42.762 84.71 43.295 84.71 43.9525C84.71 44.61 85.2338 45.143 85.8799 45.143H89.3898V48.7144C89.3898 49.3719 89.9136 49.9049 90.5598 49.9049C91.2059 49.9049 91.7297 49.3719 91.7297 48.7144V43.9525C91.7297 43.295 91.2059 42.762 90.5598 42.762Z" fill="white"/>
<path d="M87.05 46.3333H81.2002C80.5541 46.3333 80.0303 46.8662 80.0303 47.5237C80.0303 48.1813 80.5541 48.7142 81.2002 48.7142H87.05C87.6961 48.7142 88.2199 48.1813 88.2199 47.5237C88.2199 46.8662 87.6961 46.3333 87.05 46.3333Z" fill="white"/>
<path d="M77.6901 52.2859H73.0103C72.3641 52.2859 71.8403 52.8189 71.8403 53.4764C71.8403 54.1339 72.3641 54.6668 73.0103 54.6668H76.5202V61.8097C76.5202 62.4672 77.044 63.0002 77.6901 63.0002C78.3363 63.0002 78.8601 62.4672 78.8601 61.8097V53.4763C78.86 52.8189 78.3362 52.2859 77.6901 52.2859Z" fill="white"/>
<path d="M77.6905 48.7144H76.5206C75.8744 48.7144 75.3506 49.2474 75.3506 49.9049C75.3506 50.5624 75.8744 51.0953 76.5206 51.0953H77.6905C78.3367 51.0953 78.8605 50.5623 78.8605 49.9048C78.8605 49.2473 78.3366 48.7144 77.6905 48.7144Z" fill="white"/>
<path d="M77.6905 45.1428H76.5206C75.8744 45.1428 75.3506 45.6758 75.3506 46.3333C75.3506 46.9908 75.8744 47.5238 76.5206 47.5238H77.6905C78.3367 47.5238 78.8605 46.9908 78.8605 46.3333C78.8605 45.6757 78.3366 45.1428 77.6905 45.1428Z" fill="white"/>
<path d="M63.651 47.5239H60.1412C59.495 47.5239 58.9712 48.0569 58.9712 48.7144C58.9712 49.3719 59.495 49.9049 60.1412 49.9049H63.651C64.2972 49.9049 64.821 49.3719 64.821 48.7144C64.821 48.0569 64.2971 47.5239 63.651 47.5239Z" fill="white"/>
<path d="M76.5206 33.2383C75.8744 33.2383 75.3506 33.7713 75.3506 34.4288V35.6193C75.3506 36.2768 75.8744 36.8098 76.5206 36.8098C77.1667 36.8098 77.6905 36.2768 77.6905 35.6193V34.4288C77.6905 33.7713 77.1667 33.2383 76.5206 33.2383Z" fill="white"/>
<path d="M61.3111 43.9524H60.1412C59.495 43.9524 58.9712 44.4854 58.9712 45.1429C58.9712 45.8004 59.495 46.3334 60.1412 46.3334H61.3111C61.9573 46.3334 62.4811 45.8004 62.4811 45.1429C62.4811 44.4854 61.9572 43.9524 61.3111 43.9524Z" fill="white"/>
</g>
<defs>
<clipPath id="clip0">
<rect x="58.9712" y="29.6667" width="32.7586" height="33.3333" rx="4" fill="white"/>
</clipPath>
</defs>
</svg>
